Coordinates
version=1
nRows=29
nColumns=24
inDegrees=yes

Units are S.I. units (second, meters, Newtons, ...)
Angles are in degrees.

endheader
time	pelvis_tilt	pelvis_list	pelvis_rotation	pelvis_tx	pelvis_ty	pelvis_tz	hip_flexion_r	hip_adduction_r	hip_rotation_r	knee_angle_r	ankle_angle_r	subtalar_angle_r	mtp_angle_r	hip_flexion_l	hip_adduction_l	hip_rotation_l	knee_angle_l	ankle_angle_l	subtalar_angle_l	mtp_angle_l	lumbar_extension	lumbar_bending	lumbar_rotation
      2.07000000	     23.49432572	     -0.25344669	     10.95281744	      0.90997095	      0.88562042	     -0.01615928	    -36.53193998	      5.83463380	    -15.16879177	    -34.10433310	     -6.24462938	     21.94903310	     52.71530989	     -3.27179956	      5.97167461	     38.26880360	    -17.40834466	    -13.29893598	    -40.16259045	      5.85969836	    -32.18802102	      4.07604644	     -6.82512466
      2.07500000	     23.45094499	     -0.07717228	     10.85064985	      0.91681461	      0.88679991	     -0.01631419	    -35.67662530	      5.08975343	    -16.03425540	    -36.12894967	     -7.59392873	     21.63207354	     52.64014917	     -3.79192842	      6.09307903	     38.26328243	    -17.35103282	    -13.01595723	    -40.27088592	      5.86857933	    -32.16000328	      3.77117030	     -6.93776405
      2.08000000	     23.41530950	      0.07886379	     10.74600078	      0.92361967	      0.88797511	     -0.01649717	    -34.82431757	      4.36110066	    -16.80204895	    -38.08571724	     -8.76553472	     21.12612021	     52.47397213	     -4.33685102	      6.18824327	     38.27724688	    -17.25508739	    -12.73022252	    -40.40944155	      5.87137427	    -32.14013369	      3.49508395	     -7.04323179
      2.08500000	     23.40328243	      0.20644364	     10.61187645	      0.93045246	      0.88920804	     -0.01664613	    -33.99510077	      3.66098888	    -17.42443900	    -39.97462474	     -9.62545316	     20.51484802	     49.75883702	     -4.95666096	      6.22471989	     38.29690331	    -17.02325620	    -12.57273214	    -40.83183284	      5.73818306	    -32.13418606	      3.24230768	     -7.10811090
      2.09000000	     23.35041275	      0.29042873	     10.44420953	      0.93726350	      0.89037465	     -0.01675045	    -33.09404915	      2.98296404	    -17.93824987	    -41.81056735	    -10.26829724	     19.58849718	     49.48989131	     -5.50492925	      6.22614959	     38.18650557	    -16.82325088	    -12.24649271	    -40.94149151	      5.77980969	    -32.08238630	      3.01544801	     -7.12291307
      2.09500000	     23.36030438	      0.34902341	     10.25173460	      0.94406772	      0.89162651	     -0.01681861	    -32.26316492	      2.35088757	    -18.33710655	    -43.52753533	    -10.70796017	     18.50375058	     49.06437661	     -6.14819825	      6.17418179	     38.02885789	    -16.54251734	    -11.95760311	    -41.14218943	      5.82341069	    -32.09398225	      2.81792695	     -7.09218409
      2.10000000	     23.42808567	      0.39325373	     10.02551877	      0.95089787	      0.89295224	     -0.01684056	    -31.49229208	      1.73687504	    -18.64436013	    -45.18721056	    -10.63637723	     17.76498515	     44.28061410	     -6.91721003	      6.07156983	     37.87258432	    -16.10007994	    -11.93333270	    -41.77963940	      6.32630006	    -32.15640265	      2.63172917	     -7.02795004
      2.10500000	     23.42096146	      0.35129610	      9.81604227	      0.95769218	      0.89415594	     -0.01690315	    -30.60850950	      1.23272998	    -18.85208703	    -46.72649638	    -10.62250158	     16.51572134	     43.98507930	     -7.54516514	      5.90882991	     37.62060829	    -15.75502663	    -11.55858301	    -41.91022932	      6.41738218	    -32.13015145	      2.53743607	     -6.92994147
      2.11000000	     23.47192251	      0.28524148	      9.56654349	      0.96448765	      0.89546142	     -0.01686848	    -29.78473944	      0.78114124	    -18.94856296	    -48.14142891	    -10.34900385	     15.20908289	     43.56277105	     -8.27522783	      5.69118168	     37.32734874	    -15.30332465	    -11.29919261	    -42.12119943	      6.50271001	    -32.15982097	      2.45555183	     -6.78581164
      2.11500000	     23.57938410	      0.20389940	      9.31734980	      0.97125231	      0.89678947	     -0.01685634	    -29.01453193	      0.36447028	    -19.01260171	    -49.49641509	     -9.62111068	     14.28336244	     38.89772562	     -9.09006830	      5.44532701	     37.03189520	    -14.77998176	    -11.27355584	    -42.72277573	      7.53675290	    -32.24896384	      2.40625812	     -6.63528389
      2.12000000	     23.61584385	      0.04975649	      9.03131510	      0.97803512	      0.89804339	     -0.01678119	    -28.13788034	      0.03067847	    -18.95908632	    -50.71978501	     -9.03602607	     12.91256337	     38.67440379	     -9.80441718	      5.14434604	     36.61027158	    -14.28547827	    -10.99079252	    -42.87636106	      7.64178739	    -32.25340216	      2.40550750	     -6.39860693
      2.12500000	     23.72128346	     -0.10003719	      8.73286561	      0.98481764	      0.89935093	     -0.01665277	    -27.34087443	     -0.27353020	    -18.87105455	    -51.84854693	     -8.09714647	     11.75460949	     35.78209074	    -10.62085945	      4.82660745	     36.13177010	    -13.72405719	    -10.85032744	    -43.17031565	      9.01857824	    -32.32842177	      2.40459735	     -6.18035428
      2.13000000	     23.80129052	     -0.34469069	      8.42073977	      0.99155385	      0.90062255	     -0.01650265	    -26.49082925	     -0.44309888	    -18.65615999	    -52.82781989	     -7.18637540	     10.38671079	     35.61776234	    -11.41050859	      4.41840325	     35.63986800	    -13.12613179	    -10.63010222	    -43.41558307	      9.09673939	    -32.36984486	      2.49335964	     -5.86908678
      2.13500000	     23.90628770	     -0.60068965	      8.08713380	      0.99829066	      0.90190490	     -0.01630297	    -25.66794080	     -0.57474139	    -18.39769618	    -53.69131678	     -6.19884849	      9.01096645	     35.34645249	    -12.24277513	      3.99800653	     35.08493716	    -12.49442461	    -10.41616763	    -43.59977828	      9.20688029	    -32.43961587	      2.58914774	     -5.55071431
      2.14000000	     24.02469032	     -0.89230665	      7.73814935	      1.00500997	      0.90316949	     -0.01605947	    -24.85211544	     -0.63580577	    -18.07441657	    -54.43897073	     -5.13187987	      7.64876555	     34.97003301	    -13.09813912	      3.54622294	     34.48785119	    -11.84530503	    -10.18549797	    -43.74400095	      9.36466697	    -32.52088253	      2.71614311	     -5.19031214
      2.14500000	     24.12759309	     -1.22199611	      7.40692842	      1.01173383	      0.90435847	     -0.01581438	    -24.01861420	     -0.61978653	    -17.72690252	    -55.10492824	     -3.73940922	      6.63519723	     31.28186131	    -13.89119189	      3.07267767	     33.74709110	    -11.29421522	     -9.72189311	    -43.54825380	     11.21390634	    -32.58408688	      2.89029870	     -4.85386512
      2.15000000	     24.24091791	     -1.57592084	      7.03088820	      1.01842341	      0.90556490	     -0.01550479	    -23.19279544	     -0.55416531	    -17.29347856	    -55.62048335	     -2.59670882	      5.39263341	     31.12343741	    -14.77879386	      2.56934735	     33.11383650	    -10.55177384	     -9.69315539	    -43.83383793	     11.28500929	    -32.66473286	      3.07075261	     -4.42555009
      2.15500000	     24.35468834	     -1.95992139	      6.66771480	      1.02508972	      0.90671623	     -0.01519315	    -22.37388809	     -0.40977453	    -16.82857527	    -56.01413145	     -1.43887347	      4.13782992	     30.84480990	    -15.65446119	      2.04964198	     32.43016507	     -9.84698410	     -9.52560886	    -43.96826997	     11.44170269	    -32.74499325	      3.28956652	     -4.00419599
      2.16000000	     24.45936359	     -2.36110708	      6.28073411	      1.03175027	      0.90781858	     -0.01481793	    -21.55014719	     -0.21776328	    -16.30487761	    -56.30181913	     -0.26204260	      2.99000605	     30.52009521	    -16.53183006	      1.52869330	     31.69358406	     -9.13421787	     -9.32138888	    -44.00823539	     11.62396489	    -32.82170784	      3.51187283	     -3.56566677
      2.16500000	     24.55473147	     -2.78883263	      5.93139056	      1.03840846	      0.90883896	     -0.01446930	    -20.73126772	      0.05284188	    -15.78169541	    -56.50565576	      1.20895533	      2.20162417	     26.48575716	    -17.38164159	      0.98895477	     30.92049632	     -8.46159276	     -9.24000869	    -44.14845151	     14.13897928	    -32.88676174	      3.77928211	     -3.16170496
      2.17000000	     24.64935018	     -3.23292360	      5.56814684	      1.04502434	      0.90983397	     -0.01408629	    -19.92575236	      0.37967537	    -15.20616535	    -56.55397115	      2.30765057	      1.09711386	     26.39524599	    -18.25769377	      0.44475495	     30.17372454	     -7.74587604	     -9.02637637	    -44.11572837	     14.27175424	    -32.95801559	      4.05675878	     -2.70994371
      2.17500000	     24.73295349	     -3.66476426	      5.17583962	      1.05161651	      0.91073951	     -0.01367028	    -19.11902653	      0.71180189	    -14.58134999	    -56.52460285	      3.44392173	      0.21695397	     26.28439350	    -19.12241616	     -0.05121184	     29.38421925	     -7.06406750	     -8.81225904	    -44.09903375	     14.37178037	    -33.02847117	      4.31009156	     -2.27143476
      2.18000000	     24.83621042	     -4.14579377	      4.85762512	      1.05815746	      0.91164033	     -0.01328616	    -18.36740103	      1.17961410	    -13.98016542	    -56.33004551	      4.43155236	     -0.95753256	     25.85908236	    -19.99217058	     -0.61383841	     28.60581098	     -6.40868346	     -8.43405403	    -43.76839981	     14.68733869	    -33.12099532	      4.64500913	     -1.83605272
      2.18500000	     24.92564797	     -4.60520632	      4.50499079	      1.06468346	      0.91244724	     -0.01286082	    -17.61635502	      1.63630565	    -13.32659015	    -56.06943445	      5.45451828	     -1.85301276	     25.28315064	    -20.85245510	     -1.11983951	     27.79262111	     -5.77682481	     -8.06093162	    -43.45298645	     15.06047730	    -33.20909309	      4.94179247	     -1.39638175
      2.19000000	     24.95408430	     -5.04898965	      4.12604080	      1.07118799	      0.91309847	     -0.01239663	    -16.80434620	      2.08411864	    -12.64179053	    -55.77421400	      6.57154394	     -2.42513308	     23.70638004	    -21.62620248	     -1.57235092	     26.90162558	     -5.22146252	     -7.51515593	    -42.87333519	     15.98192300	    -33.23877610	      5.20909215	     -0.92268983
      2.19500000	     25.06173118	     -5.48013553	      3.81568741	      1.07763243	      0.91377576	     -0.01203467	    -16.12595370	      2.57414898	    -11.99173764	    -55.32897442	      7.47335168	     -3.08883884	     23.52758758	    -22.54112473	     -2.03573911	     26.26674373	     -4.52587656	     -7.46658416	    -42.99907158	     16.04271282	    -33.36046160	      5.50291074	     -0.51467727
      2.20000000	     25.13553294	     -5.93122263	      3.54888746	      1.08403710	      0.91436123	     -0.01167853	    -15.44338995	      3.13852255	    -11.35677855	    -54.76414296	      8.25395787	     -4.01879128	     23.01642703	    -23.37368657	     -2.50973336	     25.56239043	     -3.94303562	     -7.19274572	    -42.81615128	     16.29741151	    -33.45108564	      5.83241000	     -0.14717183
      2.20500000	     25.20063148	     -6.34263649	      3.25258892	      1.09039607	      0.91486049	     -0.01127757	    -14.76371176	      3.67472258	    -10.65291558	    -54.15552143	      9.02233476	     -4.63801791	     22.56059255	    -24.20412192	     -2.92038481	     24.91077236	     -3.35989887	     -6.94054049	    -42.59453558	     16.52828179	    -33.54230401	      6.10676556	      0.21239409
      2.21000000	     25.22670235	     -6.75077867	      2.97410693	      1.09677146	      0.91522163	     -0.01089541	    -14.06919037	      4.21025050	    -10.00104868	    -53.49073636	      9.82665676	     -5.06769444	     21.20109515	    -24.93927158	     -3.30330561	     24.10577106	     -2.91709329	     -6.31937607	    -41.92371163	     17.21617303	    -33.59156744	      6.38714357	      0.59612065
